<mxfile host="Electron" agent="Mozilla/5.0 (Windows NT 10.0; Win64; x64) AppleWebKit/537.36 (KHTML, like Gecko) draw.io/24.7.5 Chrome/126.0.6478.183 Electron/31.3.0 Safari/537.36" version="24.7.5">
  <diagram name="Page-1" id="XfetVljxtjY0_v0PqJzd">
    <mxGraphModel dx="880" dy="524" grid="1" gridSize="10" guides="1" tooltips="1" connect="1" arrows="1" fold="1" page="1" pageScale="1" pageWidth="850" pageHeight="1100" math="0" shadow="0">
      <root>
        <mxCell id="0" />
        <mxCell id="1" parent="0" />
        <mxCell id="xs-mdbl8pimjHp9uJj3--8" style="rounded=0;orthogonalLoop=1;jettySize=auto;html=1;entryX=0;entryY=0.5;entryDx=0;entryDy=0;" parent="1" source="xs-mdbl8pimjHp9uJj3--1" target="xs-mdbl8pimjHp9uJj3--6" edge="1">
          <mxGeometry relative="1" as="geometry" />
        </mxCell>
        <mxCell id="xs-mdbl8pimjHp9uJj3--13" style="rounded=0;orthogonalLoop=1;jettySize=auto;html=1;" parent="1" source="xs-mdbl8pimjHp9uJj3--1" target="xs-mdbl8pimjHp9uJj3--9" edge="1">
          <mxGeometry relative="1" as="geometry" />
        </mxCell>
        <mxCell id="xs-mdbl8pimjHp9uJj3--17" style="rounded=0;orthogonalLoop=1;jettySize=auto;html=1;entryX=0;entryY=0.5;entryDx=0;entryDy=0;" parent="1" source="xs-mdbl8pimjHp9uJj3--1" target="xs-mdbl8pimjHp9uJj3--16" edge="1">
          <mxGeometry relative="1" as="geometry" />
        </mxCell>
        <mxCell id="BXJ4ClXh1rRheMvSAJw7-2" style="rounded=0;orthogonalLoop=1;jettySize=auto;html=1;entryX=0;entryY=0.5;entryDx=0;entryDy=0;" parent="1" source="xs-mdbl8pimjHp9uJj3--1" target="BXJ4ClXh1rRheMvSAJw7-1" edge="1">
          <mxGeometry relative="1" as="geometry" />
        </mxCell>
        <mxCell id="BGXzw_Tyrwgvi-ePR9hA-2" style="rounded=0;orthogonalLoop=1;jettySize=auto;html=1;entryX=0;entryY=0.5;entryDx=0;entryDy=0;" edge="1" parent="1" source="xs-mdbl8pimjHp9uJj3--1" target="BGXzw_Tyrwgvi-ePR9hA-1">
          <mxGeometry relative="1" as="geometry" />
        </mxCell>
        <mxCell id="BGXzw_Tyrwgvi-ePR9hA-4" style="rounded=0;orthogonalLoop=1;jettySize=auto;html=1;entryX=0;entryY=0.5;entryDx=0;entryDy=0;" edge="1" parent="1" source="xs-mdbl8pimjHp9uJj3--1" target="BGXzw_Tyrwgvi-ePR9hA-3">
          <mxGeometry relative="1" as="geometry" />
        </mxCell>
        <mxCell id="xs-mdbl8pimjHp9uJj3--1" value="User" style="shape=umlActor;verticalLabelPosition=bottom;verticalAlign=top;html=1;outlineConnect=0;" parent="1" vertex="1">
          <mxGeometry x="100" y="180" width="30" height="60" as="geometry" />
        </mxCell>
        <mxCell id="xs-mdbl8pimjHp9uJj3--11" style="rounded=0;orthogonalLoop=1;jettySize=auto;html=1;entryX=1;entryY=0.5;entryDx=0;entryDy=0;" parent="1" source="xs-mdbl8pimjHp9uJj3--2" target="xs-mdbl8pimjHp9uJj3--6" edge="1">
          <mxGeometry relative="1" as="geometry" />
        </mxCell>
        <mxCell id="xs-mdbl8pimjHp9uJj3--12" style="rounded=0;orthogonalLoop=1;jettySize=auto;html=1;entryX=1;entryY=0.5;entryDx=0;entryDy=0;" parent="1" source="xs-mdbl8pimjHp9uJj3--2" target="xs-mdbl8pimjHp9uJj3--9" edge="1">
          <mxGeometry relative="1" as="geometry" />
        </mxCell>
        <mxCell id="xs-mdbl8pimjHp9uJj3--14" style="rounded=0;orthogonalLoop=1;jettySize=auto;html=1;entryX=1;entryY=0.5;entryDx=0;entryDy=0;" parent="1" source="xs-mdbl8pimjHp9uJj3--2" target="xs-mdbl8pimjHp9uJj3--10" edge="1">
          <mxGeometry relative="1" as="geometry" />
        </mxCell>
        <mxCell id="xs-mdbl8pimjHp9uJj3--2" value="Admin" style="shape=umlActor;verticalLabelPosition=bottom;verticalAlign=top;html=1;outlineConnect=0;" parent="1" vertex="1">
          <mxGeometry x="700" y="90" width="30" height="60" as="geometry" />
        </mxCell>
        <mxCell id="xs-mdbl8pimjHp9uJj3--4" value="" style="swimlane;startSize=0;" parent="1" vertex="1">
          <mxGeometry x="280" y="40" width="330" height="680" as="geometry" />
        </mxCell>
        <mxCell id="xs-mdbl8pimjHp9uJj3--5" value="Loan Eligibility Prediction System" style="text;html=1;align=center;verticalAlign=middle;whiteSpace=wrap;rounded=0;" parent="xs-mdbl8pimjHp9uJj3--4" vertex="1">
          <mxGeometry x="60" y="10" width="210" height="40" as="geometry" />
        </mxCell>
        <mxCell id="xs-mdbl8pimjHp9uJj3--6" value="Register" style="ellipse;whiteSpace=wrap;html=1;" parent="xs-mdbl8pimjHp9uJj3--4" vertex="1">
          <mxGeometry x="85" y="50" width="125" height="50" as="geometry" />
        </mxCell>
        <mxCell id="xs-mdbl8pimjHp9uJj3--9" value="Login" style="ellipse;whiteSpace=wrap;html=1;" parent="xs-mdbl8pimjHp9uJj3--4" vertex="1">
          <mxGeometry x="85" y="110" width="125" height="60" as="geometry" />
        </mxCell>
        <mxCell id="xs-mdbl8pimjHp9uJj3--10" value="Maintain User and Predictions" style="ellipse;whiteSpace=wrap;html=1;" parent="xs-mdbl8pimjHp9uJj3--4" vertex="1">
          <mxGeometry x="80" y="340" width="125" height="60" as="geometry" />
        </mxCell>
        <mxCell id="xs-mdbl8pimjHp9uJj3--16" value="Enter Data for predicting loan eligibility" style="ellipse;whiteSpace=wrap;html=1;" parent="xs-mdbl8pimjHp9uJj3--4" vertex="1">
          <mxGeometry x="75" y="180" width="145" height="70" as="geometry" />
        </mxCell>
        <mxCell id="xs-mdbl8pimjHp9uJj3--19" value="Predict Loan Eligibility" style="ellipse;whiteSpace=wrap;html=1;" parent="xs-mdbl8pimjHp9uJj3--4" vertex="1">
          <mxGeometry x="75" y="528" width="160" height="60" as="geometry" />
        </mxCell>
        <mxCell id="xs-mdbl8pimjHp9uJj3--20" value="Display prediction and accuracy" style="ellipse;whiteSpace=wrap;html=1;" parent="xs-mdbl8pimjHp9uJj3--4" vertex="1">
          <mxGeometry x="85" y="600" width="150" height="60" as="geometry" />
        </mxCell>
        <mxCell id="BXJ4ClXh1rRheMvSAJw7-1" value="View prediction result and accuracy" style="ellipse;whiteSpace=wrap;html=1;" parent="xs-mdbl8pimjHp9uJj3--4" vertex="1">
          <mxGeometry x="65" y="260" width="155" height="70" as="geometry" />
        </mxCell>
        <mxCell id="BGXzw_Tyrwgvi-ePR9hA-1" value="Change Password" style="ellipse;whiteSpace=wrap;html=1;" vertex="1" parent="xs-mdbl8pimjHp9uJj3--4">
          <mxGeometry x="75" y="405" width="135" height="60" as="geometry" />
        </mxCell>
        <mxCell id="BGXzw_Tyrwgvi-ePR9hA-3" value="Logout" style="ellipse;whiteSpace=wrap;html=1;" vertex="1" parent="xs-mdbl8pimjHp9uJj3--4">
          <mxGeometry x="82.5" y="470" width="120" height="50" as="geometry" />
        </mxCell>
        <mxCell id="xs-mdbl8pimjHp9uJj3--21" style="rounded=0;orthogonalLoop=1;jettySize=auto;html=1;entryX=1;entryY=0.5;entryDx=0;entryDy=0;" parent="1" source="xs-mdbl8pimjHp9uJj3--18" target="xs-mdbl8pimjHp9uJj3--19" edge="1">
          <mxGeometry relative="1" as="geometry" />
        </mxCell>
        <mxCell id="xs-mdbl8pimjHp9uJj3--22" style="rounded=0;orthogonalLoop=1;jettySize=auto;html=1;entryX=1;entryY=0.5;entryDx=0;entryDy=0;" parent="1" source="xs-mdbl8pimjHp9uJj3--18" target="xs-mdbl8pimjHp9uJj3--20" edge="1">
          <mxGeometry relative="1" as="geometry" />
        </mxCell>
        <mxCell id="xs-mdbl8pimjHp9uJj3--18" value="Prediction Model" style="shape=umlActor;verticalLabelPosition=bottom;verticalAlign=top;html=1;outlineConnect=0;" parent="1" vertex="1">
          <mxGeometry x="750" y="610" width="30" height="60" as="geometry" />
        </mxCell>
        <mxCell id="BGXzw_Tyrwgvi-ePR9hA-5" style="rounded=0;orthogonalLoop=1;jettySize=auto;html=1;entryX=1;entryY=0.5;entryDx=0;entryDy=0;" edge="1" parent="1" source="xs-mdbl8pimjHp9uJj3--2" target="BGXzw_Tyrwgvi-ePR9hA-3">
          <mxGeometry relative="1" as="geometry" />
        </mxCell>
      </root>
    </mxGraphModel>
  </diagram>
</mxfile>
